<svg id="icon-logo" viewBox="0 0 64 32" preserveAspectRatio="xMidYMid">
<title>Naked Logo</title>
<path d="M10.33,13.71a3.53,3.53,0,0,0-1.47-1.27A4.87,4.87,0,0,0,6.75,12a4.91,4.91,0,0,0-1.92.35,4,4,0,0,0-1.48,1.09V12.21H2V23H3.35V17.77a12.65,12.65,0,0,1,.1-2,3.11,3.11,0,0,1,.36-1A2.8,2.8,0,0,1,4.93,13.7a3.48,3.48,0,0,1,1.66-.38,2.91,2.91,0,0,1,2.34.86A4.28,4.28,0,0,1,9.66,17V23H11V17.37a12.19,12.19,0,0,0-.16-2.3A4,4,0,0,0,10.33,13.71Z"></path><path d="M22.16,13.94a4.57,4.57,0,0,0-1.73-1.46A5.17,5.17,0,0,0,18.14,12a5.46,5.46,0,0,0-4,1.63,5.53,5.53,0,0,0-1.62,4.06,5.53,5.53,0,0,0,1.58,4,5.3,5.3,0,0,0,4,1.63,5.43,5.43,0,0,0,2.38-.53,4.41,4.41,0,0,0,1.75-1.46V23h1.36V12.21H22.16Zm-1.22,6.77A3.81,3.81,0,0,1,18.06,22a4,4,0,0,1-2.93-1.24,4.19,4.19,0,0,1-1.22-3.05,4.43,4.43,0,0,1,1.22-3.18,3.94,3.94,0,0,1,3-1.28,3.81,3.81,0,0,1,2.83,1.28,4.2,4.2,0,0,1,1.23,3A4.47,4.47,0,0,1,20.93,20.71Z"></path><polygon points="32.4 12.21 30.81 12.21 26.91 17.23 26.91 8.72 25.52 8.72 25.52 23.02 26.91 23.02 26.91 17.39 31.5 23.02 33.25 23.02 28.48 17.23 32.4 12.21"></polygon><path d="M38.72,11.92A5.49,5.49,0,0,0,33,17.61a5.59,5.59,0,0,0,1.63,4,5.35,5.35,0,0,0,4,1.68,5.26,5.26,0,0,0,3.13-1,6.19,6.19,0,0,0,2.1-2.75H42.32a4.14,4.14,0,0,1-1.5,1.76,3.94,3.94,0,0,1-2.19.63,4,4,0,0,1-2.87-1.09,4.19,4.19,0,0,1-1.28-2.85h9.76V18A6.2,6.2,0,0,0,42.7,13.6,5.15,5.15,0,0,0,38.72,11.92Zm-4.21,4.93a4.26,4.26,0,0,1,1.34-2.65,3.84,3.84,0,0,1,2.66-1,4,4,0,0,1,2.74.91,4.82,4.82,0,0,1,1.44,2.71Z"></path><path d="M54.72,11.52v2.41a4.79,4.79,0,0,0-1.77-1.45,5.36,5.36,0,0,0-2.32-.5,5.3,5.3,0,0,0-4,1.63,5.52,5.52,0,0,0-1.58,4,5.59,5.59,0,0,0,1.6,4,5.27,5.27,0,0,0,3.94,1.65,5.33,5.33,0,0,0,2.29-.51,5,5,0,0,0,1.81-1.41V23h1.4V8.72h-1.4Zm-1.19,9.22A3.81,3.81,0,0,1,50.7,22a3.94,3.94,0,0,1-3-1.29,4.44,4.44,0,0,1-1.22-3.18,4.18,4.18,0,0,1,1.22-3,4,4,0,0,1,2.93-1.24,3.82,3.82,0,0,1,2.87,1.31,4.45,4.45,0,0,1,1.22,3.15A4.22,4.22,0,0,1,53.53,20.73Z"></path><polygon points="58.67 19.15 61.09 19.93 58.67 20.67 58.67 20.97 61.09 21.72 58.67 22.51 58.67 22.94 61.91 21.85 61.91 21.58 59.44 20.83 61.91 20.07 61.91 19.8 58.67 18.7 58.67 19.15"></polygon><rect x="58.67" y="18.04" width="3.24" height="0.42"></rect><rect x="57.62" y="18.04" width="0.67" height="0.42"></rect><path d="M59.52,14.77a1.19,1.19,0,0,0-.41.16,1.06,1.06,0,0,0-.38.44,1.6,1.6,0,0,0,0,1.21A1.2,1.2,0,0,0,59,17h-.37v.4h3.24V17H60.33a3.8,3.8,0,0,1-.59,0,.94.94,0,0,1-.3-.11.84.84,0,0,1-.33-.34,1,1,0,0,1-.11-.5.87.87,0,0,1,.26-.7,1.28,1.28,0,0,1,.83-.22h1.82v-.41H60.21A3.66,3.66,0,0,0,59.52,14.77Z"></path><path d="M60.28,14.3a1.68,1.68,0,0,0,1.21-.49,1.6,1.6,0,0,0,.5-1.2,1.58,1.58,0,0,0-.29-.94,1.86,1.86,0,0,0-.83-.63v.47a1.24,1.24,0,0,1,.53.45,1.18,1.18,0,0,1,.19.66,1.2,1.2,0,0,1-.33.86,1.26,1.26,0,0,1-.86.38V10.94h0a1.86,1.86,0,0,0-1.31.46,1.54,1.54,0,0,0-.5,1.19,1.65,1.65,0,0,0,1.71,1.7Zm-1-2.46a1.45,1.45,0,0,1,.81-.43v2.46a1.28,1.28,0,0,1-.79-.4,1.15,1.15,0,0,1-.29-.8A1.21,1.21,0,0,1,59.24,11.83Z"></path><path d="M59.49,10.59a.82.82,0,0,0,.54-.17,1.67,1.67,0,0,0,.39-.7,1.19,1.19,0,0,1,.27-.46.54.54,0,0,1,.37-.13.51.51,0,0,1,.39.16.57.57,0,0,1,.15.41.55.55,0,0,1-.2.43.74.74,0,0,1-.5.17h0v.43a1.19,1.19,0,0,0,.81-.29,1,1,0,0,0,.3-.73A1,1,0,0,0,61.72,9,.91.91,0,0,0,61,8.67a.87.87,0,0,0-.89.59q0,.08-.1.3a1.45,1.45,0,0,1-.14.34.52.52,0,0,1-.18.19.49.49,0,0,1-.24.06.47.47,0,0,1-.34-.14A.46.46,0,0,1,59,9.68a.49.49,0,0,1,.13-.36.52.52,0,0,1,.36-.15V8.73a.93.93,0,0,0-.66.26.91.91,0,0,0-.24.66.93.93,0,0,0,.27.67A.86.86,0,0,0,59.49,10.59Z"></path>
</svg>